<svg id="Layer_1" data-name="Layer 1" xmlns="http://www.w3.org/2000/svg" xmlns:xlink="http://www.w3.org/1999/xlink" viewBox="0 0 8.5 4.5"><defs><style>.cls-1{clip-path:url(#clip-path);}</style><clipPath id="clip-path"><path d="M1.39.21A.88.88,0,0,0,.25.21a.7.7,0,0,0-.08,1,.34.34,0,0,0,.08.09l3.43,3a.88.88,0,0,0,1.14,0l3.43-3a.7.7,0,0,0,.08-1A.3.3,0,0,0,8.25.21a.88.88,0,0,0-1.14,0L4.25,2.71Z"/></clipPath></defs><g id="Сгруппировать_7" data-name="Сгруппировать 7"><path id="mask-2" d="M1.39.21A.88.88,0,0,0,.25.21a.7.7,0,0,0-.08,1,.34.34,0,0,0,.08.09l3.43,3a.88.88,0,0,0,1.14,0l3.43-3a.7.7,0,0,0,.08-1A.3.3,0,0,0,8.25.21a.88.88,0,0,0-1.14,0L4.25,2.71Z"/><path d="M1.39.21A.88.88,0,0,0,.25.21a.7.7,0,0,0-.08,1,.34.34,0,0,0,.08.09l3.43,3a.88.88,0,0,0,1.14,0l3.43-3a.7.7,0,0,0,.08-1A.3.3,0,0,0,8.25.21a.88.88,0,0,0-1.14,0L4.25,2.71Z"/><g class="cls-1"><g id="Группа_масок_7" data-name="Группа масок 7"><g id="_Color" data-name=" Color"><g id="Сгруппировать_5" data-name="Сгруппировать 5"><rect id="Background-2" x="-3.75" y="-5.75" width="17" height="17.38"/></g></g></g></g></g></svg>